:SAMPLES-PER-SECOND 30
:FULLY-SPECIFIED
:DEGREES
281
root  -1.86758 41.0216 0.0118306 170.659 -86.4805 -167.936
RightUpLeg  -1.43955 -0.675959 -0.18136
RightLeg  -5.0044 -20.2469 3.56787
RightFoot  4.08395 0.00326005 0.181459
RightToes  -3.10678e-008 1.75238e-005 3.56266e-009
Spine  15.757 -0.0427325 -10.2745
Spine1  -9.11453 -2.1902 11.4185
HEad  -0.589893 -16.4468 5.77792
LeftShoulder1  1.88892 -2.60342 -24.7393
LeftArm  -8.97771 -1.02127 -51.7096
LeftForeArm  52.0452 -75.6914 -41.6956
LeftHand  -0.581541 -3.84386 7.57894
RightShoulder  2.21446 3.5095 25.5425
RightArm  -0.585381 -14.4907 42.7195
RightForeArm  69.2028 79.1647 67.4955
RightHand  -0.297437 8.837 -2.80846
LeftUpLeg  -1.5769 1.3802 2.82602
LeftLeg  -3.50193 21.2031 -2.10513
LeftFoot  3.3612 0.124662 -1.12499
LeftToes  4.7643e-008 1.47522e-008 1.32869e-009
282
root  -1.47042 41.0157 0.0819526 175.228 -84.7995 -171.803
RightUpLeg  -2.78555 -0.494907 -0.296275
RightLeg  -5.50003 -18.8412 3.71469
RightFoot  5.06833 0.0221785 0.085397
RightToes  -3.10678e-008 1.75238e-005 3.56266e-009
Spine  17.5155 0.0965829 -10.6994
Spine1  -8.60614 -2.32153 11.5183
HEad  -3.35719 -18.3935 6.80526
LeftShoulder1  2.03746 -3.12017 -24.5564
LeftArm  -10.0232 -2.18813 -50.8152
LeftForeArm  51.0005 -75.4589 -40.9247
LeftHand  -0.569331 -4.13537 7.21484
RightShoulder  2.30468 3.83288 25.3676
RightArm  -0.510985 -13.6719 42.8022
RightForeArm  67.87 79.0676 66.4415
RightHand  -0.350783 8.49964 -3.30644
LeftUpLeg  -2.57801 1.29215 2.78913
LeftLeg  -3.98986 22.9383 -2.48338
LeftFoot  4.01058 0.0839854 -0.80404
LeftToes  4.7643e-008 1.47522e-008 1.32869e-009
283
root  -1.08057 41.0025 0.148608 179.141 -83.2982 -174.86
RightUpLeg  -4.37506 -0.30927 -0.47259
RightLeg  -5.82044 -17.6206 3.73829
RightFoot  6.00784 0.0108058 0.19638
RightToes  -3.10678e-008 1.75238e-005 3.56266e-009
Spine  19.3459 0.347625 -11.236
Spine1  -8.55132 -2.32644 11.6325
HEad  -5.54923 -20.4933 7.87564
LeftShoulder1  2.0867 -3.30479 -24.4415
LeftArm  -10.7688 -3.09155 -50.5244
LeftForeArm  49.9054 -75.1563 -39.8952
LeftHand  -0.570976 -3.72108 7.53447
RightShoulder  2.35779 3.97433 25.4889
RightArm  -0.546421 -13.2299 42.5947
RightForeArm  68.4574 79.1057 66.7449
RightHand  -0.365996 8.50657 -3.43246
LeftUpLeg  -3.7554 1.07147 2.64136
LeftLeg  -4.53022 24.6423 -2.87655
LeftFoot  4.70233 0.0365174 -0.462314
LeftToes  4.7643e-008 1.47522e-008 1.32869e-009
284
root  -0.735473 40.972 0.218943 -177.105 -81.8984 -177.277
RightUpLeg  -6.51387 -0.171116 -0.725484
RightLeg  -5.97402 -16.5517 3.79543
RightFoot  6.76103 0.00258619 0.268123
RightToes  -3.10678e-008 1.75238e-005 3.56266e-009
Spine  19.7096 0.403066 -11.5725
Spine1  -7.34949 -2.42834 11.2222
HEad  -7.66071 -22.551 8.62136
LeftShoulder1  2.04397 -3.20173 -24.2667
LeftArm  -11.108 -4.24749 -50.413
LeftForeArm  49.2437 -74.8526 -38.7948
LeftHand  -0.569833 -3.93399 7.36134
RightShoulder  2.35579 3.88783 25.846
RightArm  -0.738906 -11.712 42.8122
RightForeArm  65.5198 78.8623 64.0762
RightHand  -0.355135 8.42229 -3.35857
LeftUpLeg  -5.41681 0.873311 2.50181
LeftLeg  -5.06117 26.306 -3.38295
LeftFoot  5.26997 -0.00685998 -0.171296
LeftToes  4.7643e-008 1.47522e-008 1.32869e-009
285
root  -0.466976 40.9503 0.274605 -176.359 -81.2894 -177.17
RightUpLeg  -7.63827 0.157304 -0.712484
RightLeg  -6.65655 -16.2821 3.91701
RightFoot  7.60703 -0.0082969 0.36856
RightToes  -3.10678e-008 1.75238e-005 3.56266e-009
Spine  20.9917 0.530649 -11.812
Spine1  -7.54778 -2.48477 11.6557
HEad  -8.43936 -24.9909 8.57542
LeftShoulder1  2.08226 -3.2671 -24.5519
LeftArm  -11.0115 -4.52138 -50.4099
LeftForeArm  48.9275 -74.7016 -38.2827
LeftHand  -0.562786 -3.83527 7.34514
RightShoulder  2.35006 3.92293 25.6051
RightArm  -0.748479 -11.3152 43.0699
RightForeArm  64.3797 78.7457 62.7621
RightHand  -0.356645 8.11261 -3.43243
LeftUpLeg  -6.70258 0.934001 2.63185
LeftLeg  -5.10208 26.8637 -3.62771
LeftFoot  5.57715 -0.0158151 -0.121413
LeftToes  4.7643e-008 1.47522e-008 1.32869e-009
